<?xml version="1.0" encoding="UTF-8" standalone="no"?>
<svg
   xmlns:dc="http://purl.org/dc/elements/1.1/"
   xmlns:cc="http://creativecommons.org/ns#"
   xmlns:rdf="http://www.w3.org/1999/02/22-rdf-syntax-ns#"
   xmlns:svg="http://www.w3.org/2000/svg"
   xmlns="http://www.w3.org/2000/svg"
   xmlns:sodipodi="http://sodipodi.sourceforge.net/DTD/sodipodi-0.dtd"
   xmlns:inkscape="http://www.inkscape.org/namespaces/inkscape"
   width="210mm"
   height="297mm"
   viewBox="0 0 210 297"
   version="1.1"
   id="svg8"
   inkscape:version="1.0.2 (e86c870879, 2021-01-15, custom)"
   sodipodi:docname="logo.svg"
   inkscape:export-filename="D:\Users\Ivan\Documents\dev\junkfile\junkfile\gui\images\icon.png"
   inkscape:export-xdpi="96"
   inkscape:export-ydpi="96">
  <defs
     id="defs2">
    <inkscape:path-effect
       effect="perspective-envelope"
       up_left_point="65.155195,101.87108"
       up_right_point="71.785281,101.87108"
       down_left_point="65.155195,107.63663"
       down_right_point="71.785281,110.22776"
       id="path-effect898"
       is_visible="true"
       lpeversion="1"
       deform_type="perspective"
       horizontal_mirror="false"
       vertical_mirror="false"
       overflow_perspective="false" />
    <inkscape:path-effect
       effect="perspective-envelope"
       up_left_point="57.000655,101.87108"
       up_right_point="63.594567,101.87108"
       down_left_point="57.000655,106.54775"
       down_right_point="63.594567,107.23301"
       id="path-effect896"
       is_visible="true"
       lpeversion="1"
       deform_type="perspective"
       horizontal_mirror="false"
       vertical_mirror="false"
       overflow_perspective="false" />
    <inkscape:path-effect
       effect="perspective-envelope"
       up_left_point="49.07349,101.87108"
       up_right_point="55.517541,101.87108"
       down_left_point="49.07349,107.511"
       down_right_point="55.517541,106.59063"
       id="path-effect894"
       is_visible="true"
       lpeversion="1"
       deform_type="perspective"
       horizontal_mirror="false"
       vertical_mirror="false"
       overflow_perspective="false" />
    <inkscape:path-effect
       effect="perspective-envelope"
       up_left_point="43.120365,101.87108"
       up_right_point="47.68856,101.87108"
       down_left_point="43.120365,109.79499"
       down_right_point="47.68856,108.00273"
       id="path-effect892"
       is_visible="true"
       lpeversion="1"
       deform_type="perspective"
       horizontal_mirror="false"
       vertical_mirror="false"
       overflow_perspective="false" />
  </defs>
  <sodipodi:namedview
     id="base"
     pagecolor="#ffffff"
     bordercolor="#666666"
     borderopacity="1.0"
     inkscape:pageopacity="0.0"
     inkscape:pageshadow="2"
     inkscape:zoom="7.9195959"
     inkscape:cx="365.27911"
     inkscape:cy="394.33014"
     inkscape:document-units="mm"
     inkscape:current-layer="layer1"
     inkscape:document-rotation="0"
     showgrid="false"
     inkscape:snap-bbox="true"
     inkscape:bbox-nodes="false"
     inkscape:snap-bbox-edge-midpoints="false"
     showguides="true"
     inkscape:guide-bbox="true"
     inkscape:snap-nodes="false"
     inkscape:window-width="1920"
     inkscape:window-height="1017"
     inkscape:window-x="-8"
     inkscape:window-y="-8"
     inkscape:window-maximized="1">
    <sodipodi:guide
       position="49.073397,192.43568"
       orientation="1,0"
       id="guide866" />
    <sodipodi:guide
       position="55.517429,192.43567"
       orientation="1,0"
       id="guide868" />
    <sodipodi:guide
       position="57.000537,184.74108"
       orientation="1,0"
       id="guide870" />
    <sodipodi:guide
       position="63.594429,184.74108"
       orientation="1,0"
       id="guide872" />
    <sodipodi:guide
       position="65.155051,184.74108"
       orientation="1,0"
       id="guide874" />
    <sodipodi:guide
       position="71.898803,184.74108"
       orientation="1,0"
       id="guide876" />
  </sodipodi:namedview>
  <metadata
     id="metadata5">
    <rdf:RDF>
      <cc:Work
         rdf:about="">
        <dc:format>image/svg+xml</dc:format>
        <dc:type
           rdf:resource="http://purl.org/dc/dcmitype/StillImage" />
        <dc:title />
      </cc:Work>
    </rdf:RDF>
  </metadata>
  <g
     inkscape:label="Layer 1"
     inkscape:groupmode="layer"
     id="layer1">
    <g
       id="g1161"
       transform="matrix(0.81385449,0,0,0.81385449,16.470076,17.488925)"
       inkscape:export-filename="D:\Users\Ivan\Documents\dev\junkfile\junkfile\gui\images\logo.png"
       inkscape:export-xdpi="96"
       inkscape:export-ydpi="96">
      <text
         xml:space="preserve"
         style="font-style:normal;font-weight:normal;font-size:3.33692px;line-height:1.25;font-family:sans-serif;fill:#000000;fill-opacity:1;stroke:none;stroke-width:0.0834229"
         x="85.304916"
         y="119.20363"
         id="text839"
         transform="scale(1.1528868,0.86738785)"><tspan
           sodipodi:role="line"
           id="tspan837"
           x="85.304916"
           y="119.20363"
           style="stroke-width:0.0834229">FILE</tspan></text>
      <g
         id="g1138"
         transform="translate(43.736679,-10.690781)">
        <path
           style="color:#000000;font-style:normal;font-variant:normal;font-weight:normal;font-stretch:normal;font-size:medium;line-height:normal;font-family:sans-serif;font-variant-ligatures:normal;font-variant-position:normal;font-variant-caps:normal;font-variant-numeric:normal;font-variant-alternates:normal;font-variant-east-asian:normal;font-feature-settings:normal;font-variation-settings:normal;text-indent:0;text-align:start;text-decoration:none;text-decoration-line:none;text-decoration-style:solid;text-decoration-color:#000000;letter-spacing:normal;word-spacing:normal;text-transform:none;writing-mode:lr-tb;direction:ltr;text-orientation:mixed;dominant-baseline:auto;baseline-shift:baseline;text-anchor:start;white-space:normal;shape-padding:0;shape-margin:0;inline-size:0;clip-rule:nonzero;display:inline;overflow:visible;visibility:visible;opacity:1;isolation:auto;mix-blend-mode:normal;color-interpolation:sRGB;color-interpolation-filters:linearRGB;solid-color:#000000;solid-opacity:1;vector-effect:none;fill:#008080;fill-opacity:1;fill-rule:nonzero;stroke:none;stroke-width:0.264583;stroke-linecap:square;stroke-linejoin:miter;stroke-miterlimit:4;stroke-dasharray:none;stroke-dashoffset:0;stroke-opacity:1;paint-order:fill markers stroke;color-rendering:auto;image-rendering:auto;shape-rendering:auto;text-rendering:auto;enable-background:accumulate;stop-color:#000000"
           d="m 50.562443,104.64395 v 0.39688 0.26458 3.52847 c 0,0.87538 0.494416,1.61772 1.270722,1.99522 l 0.03204,0.032 0.07131,0.0305 c 0.793533,0.33498 1.762501,0.3683 2.886644,0.20774 1.090972,-0.15581 1.938589,-0.43542 2.556433,-0.92191 0.604462,-0.47612 0.949815,-1.16713 0.949815,-1.92236 v -3.61115 h -3.02359 v 3.69435 c 0,0.23575 -0.03134,0.26371 -0.08061,0.30902 l -0.0041,0.004 c -0.03354,0.0311 -0.215291,0.13423 -0.567922,0.17518 -0.36516,0.0424 -0.565965,-0.0464 -0.540536,-0.0274 -0.02466,-0.0172 -0.04548,0.002 -0.04548,-0.23772 v -3.91759 z"
           id="path1076" />
        <path
           style="color:#000000;font-style:normal;font-variant:normal;font-weight:normal;font-stretch:normal;font-size:medium;line-height:normal;font-family:sans-serif;font-variant-ligatures:normal;font-variant-position:normal;font-variant-caps:normal;font-variant-numeric:normal;font-variant-alternates:normal;font-variant-east-asian:normal;font-feature-settings:normal;font-variation-settings:normal;text-indent:0;text-align:start;text-decoration:none;text-decoration-line:none;text-decoration-style:solid;text-decoration-color:#000000;letter-spacing:normal;word-spacing:normal;text-transform:none;writing-mode:lr-tb;direction:ltr;text-orientation:mixed;dominant-baseline:auto;baseline-shift:baseline;text-anchor:start;white-space:normal;shape-padding:0;shape-margin:0;inline-size:0;clip-rule:nonzero;display:inline;overflow:visible;visibility:visible;opacity:1;isolation:auto;mix-blend-mode:normal;color-interpolation:sRGB;color-interpolation-filters:linearRGB;solid-color:#000000;solid-opacity:1;vector-effect:none;fill:#ffffff;fill-opacity:1;fill-rule:nonzero;stroke:none;stroke-width:0.529167;stroke-linecap:square;stroke-linejoin:miter;stroke-miterlimit:4;stroke-dasharray:none;stroke-dashoffset:0;stroke-opacity:1;paint-order:fill markers stroke;color-rendering:auto;image-rendering:auto;shape-rendering:auto;text-rendering:auto;enable-background:accumulate;stop-color:#000000"
           d="m 51.223901,105.30541 v 3.52847 c 0,0.69015 0.328803,1.17512 0.969965,1.44797 0.6243,0.26354 1.480161,0.31354 2.535764,0.16278 1.02616,-0.14656 1.762067,-0.40964 2.24069,-0.78651 0.468342,-0.36891 0.697632,-0.83378 0.697632,-1.40302 v -2.94969 h -1.700673 v 3.03289 c 0,0.35041 -0.09742,0.615 -0.294036,0.79582 -0.195572,0.1825 -0.507979,0.29925 -0.943613,0.34985 -0.456959,0.0531 -0.79475,0.005 -1.006657,-0.14677 -0.210709,-0.15413 -0.317294,-0.41343 -0.317294,-0.77566 v -3.25613 z"
           id="path998" />
        <path
           id="path1054"
           style="color:#000000;font-style:normal;font-variant:normal;font-weight:normal;font-stretch:normal;font-size:medium;line-height:normal;font-family:sans-serif;font-variant-ligatures:normal;font-variant-position:normal;font-variant-caps:normal;font-variant-numeric:normal;font-variant-alternates:normal;font-variant-east-asian:normal;font-feature-settings:normal;font-variation-settings:normal;text-indent:0;text-align:start;text-decoration:none;text-decoration-line:none;text-decoration-style:solid;text-decoration-color:#000000;letter-spacing:normal;word-spacing:normal;text-transform:none;writing-mode:lr-tb;direction:ltr;text-orientation:mixed;dominant-baseline:auto;baseline-shift:baseline;text-anchor:start;white-space:normal;shape-padding:0;shape-margin:0;inline-size:0;clip-rule:nonzero;display:inline;overflow:visible;visibility:visible;opacity:1;isolation:auto;mix-blend-mode:normal;color-interpolation:sRGB;color-interpolation-filters:linearRGB;solid-color:#000000;solid-opacity:1;vector-effect:none;fill:#333333;fill-opacity:1;fill-rule:nonzero;stroke:none;stroke-width:0.264583;stroke-linecap:square;stroke-linejoin:miter;stroke-miterlimit:4;stroke-dasharray:none;stroke-dashoffset:0;stroke-opacity:1;paint-order:fill markers stroke;color-rendering:auto;image-rendering:auto;shape-rendering:auto;text-rendering:auto;enable-background:accumulate;stop-color:#000000"
           d="m 50.959454,105.04084 v 0.26458 3.52847 c 0,0.77418 0.416081,1.38705 1.131197,1.69137 l 5.29e-4,5.3e-4 c 0.693074,0.29257 1.592284,0.33562 2.675806,0.18086 1.052507,-0.15031 1.832125,-0.41938 2.367296,-0.84077 0.520244,-0.40979 0.798401,-0.97047 0.798401,-1.61076 v -3.21427 h -2.229837 v 3.29747 c 0,0.30138 -0.07476,0.47776 -0.208772,0.601 l -5.29e-4,5.3e-4 -5.29e-4,10e-4 c -0.13397,0.12501 -0.390049,0.23319 -0.79375,0.28008 -0.423254,0.0491 -0.69577,-0.009 -0.82114,-0.0982 -0.130215,-0.0958 -0.207738,-0.25177 -0.207738,-0.56121 v -3.52071 z m 0.529167,0.52916 h 1.652614 v 2.99155 c 0,0.41414 0.135289,0.77657 0.425812,0.98909 l 0.0011,0.001 0.0011,5.3e-4 c 0.298757,0.21429 0.701249,0.25171 1.191144,0.19482 0.467566,-0.0543 0.836295,-0.17963 1.093472,-0.41962 0.258263,-0.23837 0.378272,-0.59035 0.378272,-0.98908 v -2.76831 h 1.171504 v 2.68511 c 0,0.49819 -0.180422,0.86725 -0.596863,1.19527 -0.422079,0.33235 -1.114266,0.58946 -2.114082,0.73226 -1.027681,0.14677 -1.840193,0.0898 -2.39572,-0.1447 -0.566639,-0.24136 -0.80822,-0.59823 -0.80822,-1.20406 z" />
        <path
           style="color:#000000;font-style:normal;font-variant:normal;font-weight:normal;font-stretch:normal;font-size:medium;line-height:normal;font-family:sans-serif;font-variant-ligatures:normal;font-variant-position:normal;font-variant-caps:normal;font-variant-numeric:normal;font-variant-alternates:normal;font-variant-east-asian:normal;font-feature-settings:normal;font-variation-settings:normal;text-indent:0;text-align:start;text-decoration:none;text-decoration-line:none;text-decoration-style:solid;text-decoration-color:#000000;letter-spacing:normal;word-spacing:normal;text-transform:none;writing-mode:lr-tb;direction:ltr;text-orientation:mixed;dominant-baseline:auto;baseline-shift:baseline;text-anchor:start;white-space:normal;shape-padding:0;shape-margin:0;inline-size:0;clip-rule:nonzero;display:inline;overflow:visible;visibility:visible;opacity:1;isolation:auto;mix-blend-mode:normal;color-interpolation:sRGB;color-interpolation-filters:linearRGB;solid-color:#000000;solid-opacity:1;vector-effect:none;fill:#008080;fill-opacity:1;fill-rule:nonzero;stroke:none;stroke-width:0.264583;stroke-linecap:square;stroke-linejoin:miter;stroke-miterlimit:4;stroke-dasharray:none;stroke-dashoffset:0;stroke-opacity:1;paint-order:fill markers stroke;color-rendering:auto;image-rendering:auto;shape-rendering:auto;text-rendering:auto;enable-background:accumulate;stop-color:#000000"
           d="m 66.143018,104.64395 v 0.39688 0.26458 6.21719 l 2.761589,1.07952 v -1.56941 l 1.195276,2.03605 5.060156,1.97817 -4.293796,-6.40064 4.00544,-4.00234 h -4.647261 l -1.319815,1.61541 v -1.61541 z"
           id="path1080" />
        <path
           style="color:#000000;font-style:normal;font-variant:normal;font-weight:normal;font-stretch:normal;font-size:medium;line-height:normal;font-family:sans-serif;font-variant-ligatures:normal;font-variant-position:normal;font-variant-caps:normal;font-variant-numeric:normal;font-variant-alternates:normal;font-variant-east-asian:normal;font-feature-settings:normal;font-variation-settings:normal;text-indent:0;text-align:start;text-decoration:none;text-decoration-line:none;text-decoration-style:solid;text-decoration-color:#000000;letter-spacing:normal;word-spacing:normal;text-transform:none;writing-mode:lr-tb;direction:ltr;text-orientation:mixed;dominant-baseline:auto;baseline-shift:baseline;text-anchor:start;white-space:normal;shape-padding:0;shape-margin:0;inline-size:0;clip-rule:nonzero;display:inline;overflow:visible;visibility:visible;opacity:1;isolation:auto;mix-blend-mode:normal;color-interpolation:sRGB;color-interpolation-filters:linearRGB;solid-color:#000000;solid-opacity:1;vector-effect:none;fill:#ffffff;fill-opacity:1;fill-rule:nonzero;stroke:none;stroke-width:0.529167;stroke-linecap:square;stroke-linejoin:miter;stroke-miterlimit:4;stroke-dasharray:none;stroke-dashoffset:0;stroke-opacity:1;paint-order:fill markers stroke;color-rendering:auto;image-rendering:auto;shape-rendering:auto;text-rendering:auto;enable-background:accumulate;stop-color:#000000"
           d="m 66.804476,105.30541 v 5.76554 l 1.438672,0.56224 v -2.13785 l 0.314193,-0.36071 1.997295,3.40186 2.879926,1.12552 -3.420978,-5.09892 3.260264,-3.25768 h -2.735749 l -2.294951,2.80861 v -2.80861 z"
           id="path1002" />
        <path
           id="path1058"
           style="color:#000000;font-style:normal;font-variant:normal;font-weight:normal;font-stretch:normal;font-size:medium;line-height:normal;font-family:sans-serif;font-variant-ligatures:normal;font-variant-position:normal;font-variant-caps:normal;font-variant-numeric:normal;font-variant-alternates:normal;font-variant-east-asian:normal;font-feature-settings:normal;font-variation-settings:normal;text-indent:0;text-align:start;text-decoration:none;text-decoration-line:none;text-decoration-style:solid;text-decoration-color:#000000;letter-spacing:normal;word-spacing:normal;text-transform:none;writing-mode:lr-tb;direction:ltr;text-orientation:mixed;dominant-baseline:auto;baseline-shift:baseline;text-anchor:start;white-space:normal;shape-padding:0;shape-margin:0;inline-size:0;clip-rule:nonzero;display:inline;overflow:visible;visibility:visible;opacity:1;isolation:auto;mix-blend-mode:normal;color-interpolation:sRGB;color-interpolation-filters:linearRGB;solid-color:#000000;solid-opacity:1;vector-effect:none;fill:#333333;fill-opacity:1;fill-rule:nonzero;stroke:none;stroke-width:0.264583;stroke-linecap:square;stroke-linejoin:miter;stroke-miterlimit:4;stroke-dasharray:none;stroke-dashoffset:0;stroke-opacity:1;paint-order:fill markers stroke;color-rendering:auto;image-rendering:auto;shape-rendering:auto;text-rendering:auto;enable-background:accumulate;stop-color:#000000"
           d="m 66.540029,105.04084 v 0.26458 5.94641 l 1.967839,0.76894 v -2.42621 l 0.0078,-0.009 1.857251,3.16363 3.752225,1.46658 -3.770312,-5.61981 3.558439,-3.55534 H 70.41271 l -1.904794,2.33164 v -2.33164 z m 0.529167,0.52916 h 0.909505 v 3.28611 L 70.663809,105.57 h 1.97094 l -2.962093,2.96003 3.072165,4.57853 -2.008148,-0.78496 -2.137336,-3.64009 -0.620636,0.71262 v 1.8495 l -0.909505,-0.35554 z" />
        <path
           style="color:#000000;font-style:normal;font-variant:normal;font-weight:normal;font-stretch:normal;font-size:medium;line-height:normal;font-family:sans-serif;font-variant-ligatures:normal;font-variant-position:normal;font-variant-caps:normal;font-variant-numeric:normal;font-variant-alternates:normal;font-variant-east-asian:normal;font-feature-settings:normal;font-variation-settings:normal;text-indent:0;text-align:start;text-decoration:none;text-decoration-line:none;text-decoration-style:solid;text-decoration-color:#000000;letter-spacing:normal;word-spacing:normal;text-transform:none;writing-mode:lr-tb;direction:ltr;text-orientation:mixed;dominant-baseline:auto;baseline-shift:baseline;text-anchor:start;white-space:normal;shape-padding:0;shape-margin:0;inline-size:0;clip-rule:nonzero;display:inline;overflow:visible;visibility:visible;opacity:1;isolation:auto;mix-blend-mode:normal;color-interpolation:sRGB;color-interpolation-filters:linearRGB;solid-color:#000000;solid-opacity:1;vector-effect:none;fill:#008080;fill-opacity:1;fill-rule:nonzero;stroke:none;stroke-width:0.264583;stroke-linecap:square;stroke-linejoin:miter;stroke-miterlimit:4;stroke-dasharray:none;stroke-dashoffset:0;stroke-opacity:1;paint-order:fill markers stroke;color-rendering:auto;image-rendering:auto;shape-rendering:auto;text-rendering:auto;enable-background:accumulate;stop-color:#000000"
           d="m 58.289156,104.64395 v 0.39688 0.26458 5.27254 l 2.919201,0.30335 v -2.22519 l 1.944068,2.42776 3.053559,0.31729 v -6.75721 h -3.272668 v 1.79731 l -1.505334,-1.79731 z"
           id="path1078" />
        <path
           style="color:#000000;font-style:normal;font-variant:normal;font-weight:normal;font-stretch:normal;font-size:medium;line-height:normal;font-family:sans-serif;font-variant-ligatures:normal;font-variant-position:normal;font-variant-caps:normal;font-variant-numeric:normal;font-variant-alternates:normal;font-variant-east-asian:normal;font-feature-settings:normal;font-variation-settings:normal;text-indent:0;text-align:start;text-decoration:none;text-decoration-line:none;text-decoration-style:solid;text-decoration-color:#000000;letter-spacing:normal;word-spacing:normal;text-transform:none;writing-mode:lr-tb;direction:ltr;text-orientation:mixed;dominant-baseline:auto;baseline-shift:baseline;text-anchor:start;white-space:normal;shape-padding:0;shape-margin:0;inline-size:0;clip-rule:nonzero;display:inline;overflow:visible;visibility:visible;opacity:1;isolation:auto;mix-blend-mode:normal;color-interpolation:sRGB;color-interpolation-filters:linearRGB;solid-color:#000000;solid-opacity:1;vector-effect:none;fill:#ffffff;fill-opacity:1;fill-rule:nonzero;stroke:none;stroke-width:0.529167;stroke-linecap:square;stroke-linejoin:miter;stroke-miterlimit:4;stroke-dasharray:none;stroke-dashoffset:0;stroke-opacity:1;paint-order:fill markers stroke;color-rendering:auto;image-rendering:auto;shape-rendering:auto;text-rendering:auto;enable-background:accumulate;stop-color:#000000"
           d="m 58.950614,105.30541 v 4.6762 l 1.596284,0.16588 v -3.3755 l 2.949173,3.68246 2.048455,0.21291 v -5.36195 h -1.949752 v 2.95537 l -2.475817,-2.95537 z"
           id="path1000" />
        <path
           id="path1056"
           style="color:#000000;font-style:normal;font-variant:normal;font-weight:normal;font-stretch:normal;font-size:medium;line-height:normal;font-family:sans-serif;font-variant-ligatures:normal;font-variant-position:normal;font-variant-caps:normal;font-variant-numeric:normal;font-variant-alternates:normal;font-variant-east-asian:normal;font-feature-settings:normal;font-variation-settings:normal;text-indent:0;text-align:start;text-decoration:none;text-decoration-line:none;text-decoration-style:solid;text-decoration-color:#000000;letter-spacing:normal;word-spacing:normal;text-transform:none;writing-mode:lr-tb;direction:ltr;text-orientation:mixed;dominant-baseline:auto;baseline-shift:baseline;text-anchor:start;white-space:normal;shape-padding:0;shape-margin:0;inline-size:0;clip-rule:nonzero;display:inline;overflow:visible;visibility:visible;opacity:1;isolation:auto;mix-blend-mode:normal;color-interpolation:sRGB;color-interpolation-filters:linearRGB;solid-color:#000000;solid-opacity:1;vector-effect:none;fill:#333333;fill-opacity:1;fill-rule:nonzero;stroke:none;stroke-width:0.264583;stroke-linecap:square;stroke-linejoin:miter;stroke-miterlimit:4;stroke-dasharray:none;stroke-dashoffset:0;stroke-opacity:1;paint-order:fill markers stroke;color-rendering:auto;image-rendering:auto;shape-rendering:auto;text-rendering:auto;enable-background:accumulate;stop-color:#000000"
           d="m 58.686167,105.04084 v 0.26458 4.91494 l 2.125451,0.22066 v -2.91506 l 2.547133,3.18016 2.450497,0.25477 v -5.92005 H 63.33033 v 2.49235 l -2.087729,-2.49235 z m 0.529167,0.52916 h 1.780254 l 2.863908,3.4184 V 105.57 h 1.420585 v 4.80384 l -1.646412,-0.17104 -3.351217,-4.18425 v 3.83543 l -1.067118,-0.1111 z" />
        <path
           style="color:#000000;font-style:normal;font-variant:normal;font-weight:normal;font-stretch:normal;font-size:medium;line-height:normal;font-family:sans-serif;font-variant-ligatures:normal;font-variant-position:normal;font-variant-caps:normal;font-variant-numeric:normal;font-variant-alternates:normal;font-variant-east-asian:normal;font-feature-settings:normal;font-variation-settings:normal;text-indent:0;text-align:start;text-decoration:none;text-decoration-line:none;text-decoration-style:solid;text-decoration-color:#000000;letter-spacing:normal;word-spacing:normal;text-transform:none;writing-mode:lr-tb;direction:ltr;text-orientation:mixed;dominant-baseline:auto;baseline-shift:baseline;text-anchor:start;white-space:normal;shape-padding:0;shape-margin:0;inline-size:0;clip-rule:nonzero;display:inline;overflow:visible;visibility:visible;opacity:1;isolation:auto;mix-blend-mode:normal;color-interpolation:sRGB;color-interpolation-filters:linearRGB;solid-color:#000000;solid-opacity:1;vector-effect:none;fill:#008080;fill-opacity:1;fill-rule:nonzero;stroke:none;stroke-width:0.264583;stroke-linecap:square;stroke-linejoin:miter;stroke-miterlimit:4;stroke-dasharray:none;stroke-dashoffset:0;stroke-opacity:1;paint-order:fill markers stroke;color-rendering:auto;image-rendering:auto;shape-rendering:auto;text-rendering:auto;enable-background:accumulate;stop-color:#000000"
           d="m 45.811621,104.64395 v 0.39688 0.26458 2.04949 l 1.845881,-0.12919 v 1.96732 c 0,0.21421 -0.0052,0.40666 -0.01344,0.58291 l -0.0016,0.007 v 0.0372 c -0.004,0.11643 -0.02469,0.20442 -0.06511,0.29455 l -0.0067,0.015 c -0.02233,0.0521 -0.06465,0.11722 -0.180351,0.2067 l -0.0026,0.002 c -0.08431,0.0659 -0.298879,0.18117 -0.620118,0.2837 -0.262641,0.0838 -0.473903,0.12445 -0.584459,0.13178 -0.18697,0.008 -0.369898,0.0121 -0.546737,0.0103 l -0.103871,-10e-4 -0.789614,0.24391 v 2.89233 l 0.802534,-0.1757 c 0.30815,-0.0673 0.6452,-0.16213 1.007174,-0.27854 l 0.01394,-0.003 0.01085,-0.004 c 0.360069,-0.11331 0.728149,-0.24431 1.10381,-0.3917 0.502806,-0.19726 0.939683,-0.41986 1.31568,-0.67438 0.364982,-0.24707 0.679709,-0.53421 0.939996,-0.85835 0.233632,-0.35444 0.431419,-0.70326 0.549836,-1.0697 0.08507,-0.28669 0.147278,-0.57814 0.147278,-0.87281 v -4.92735 z"
           id="path932" />
        <path
           style="color:#000000;font-style:normal;font-variant:normal;font-weight:normal;font-stretch:normal;font-size:medium;line-height:normal;font-family:sans-serif;font-variant-ligatures:normal;font-variant-position:normal;font-variant-caps:normal;font-variant-numeric:normal;font-variant-alternates:normal;font-variant-east-asian:normal;font-feature-settings:normal;font-variation-settings:normal;text-indent:0;text-align:start;text-decoration:none;text-decoration-line:none;text-decoration-style:solid;text-decoration-color:#000000;letter-spacing:normal;word-spacing:normal;text-transform:none;writing-mode:lr-tb;direction:ltr;text-orientation:mixed;dominant-baseline:auto;baseline-shift:baseline;text-anchor:start;white-space:normal;shape-padding:0;shape-margin:0;inline-size:0;clip-rule:nonzero;display:inline;overflow:visible;visibility:visible;opacity:1;isolation:auto;mix-blend-mode:normal;color-interpolation:sRGB;color-interpolation-filters:linearRGB;solid-color:#000000;solid-opacity:1;vector-effect:none;fill:#ffffff;fill-opacity:1;fill-rule:nonzero;stroke:none;stroke-width:0.529167;stroke-linecap:square;stroke-linejoin:miter;stroke-miterlimit:4;stroke-dasharray:none;stroke-dashoffset:0;stroke-opacity:1;paint-order:fill markers stroke;color-rendering:auto;image-rendering:auto;shape-rendering:auto;text-rendering:auto;enable-background:accumulate;stop-color:#000000"
           d="m 46.473079,105.30541 v 1.33997 l 1.845881,-0.12919 v 2.67684 c 0,0.23619 -0.0052,0.45262 -0.01497,0.64957 -0.0065,0.19328 -0.04714,0.37399 -0.122989,0.54312 -0.07317,0.17266 -0.201091,0.33033 -0.386022,0.47335 -0.185322,0.14495 -0.458089,0.27539 -0.825791,0.39275 -0.296386,0.0946 -0.54592,0.14936 -0.744656,0.16226 -0.202899,0.01 -0.40182,0.0134 -0.595829,0.0114 l -0.224276,0.0692 v 1.58234 c 0.289623,-0.0633 0.615098,-0.15347 0.97255,-0.26924 0.344635,-0.1084 0.699468,-0.23461 1.062984,-0.37724 0.466479,-0.183 0.859523,-0.38482 1.18649,-0.60616 0.314841,-0.21313 0.578668,-0.45491 0.795819,-0.72554 0.18918,-0.23371 0.327038,-0.48067 0.417028,-0.74259 0.08897,-0.26168 0.133324,-0.52272 0.133324,-0.78496 v -4.26589 z"
           id="path909" />
        <path
           id="path911"
           style="color:#000000;font-style:normal;font-variant:normal;font-weight:normal;font-stretch:normal;font-size:medium;line-height:normal;font-family:sans-serif;font-variant-ligatures:normal;font-variant-position:normal;font-variant-caps:normal;font-variant-numeric:normal;font-variant-alternates:normal;font-variant-east-asian:normal;font-feature-settings:normal;font-variation-settings:normal;text-indent:0;text-align:start;text-decoration:none;text-decoration-line:none;text-decoration-style:solid;text-decoration-color:#000000;letter-spacing:normal;word-spacing:normal;text-transform:none;writing-mode:lr-tb;direction:ltr;text-orientation:mixed;dominant-baseline:auto;baseline-shift:baseline;text-anchor:start;white-space:normal;shape-padding:0;shape-margin:0;inline-size:0;clip-rule:nonzero;display:inline;overflow:visible;visibility:visible;opacity:1;isolation:auto;mix-blend-mode:normal;color-interpolation:sRGB;color-interpolation-filters:linearRGB;solid-color:#000000;solid-opacity:1;vector-effect:none;fill:#333333;fill-opacity:1;fill-rule:nonzero;stroke:none;stroke-width:0.264583;stroke-linecap:square;stroke-linejoin:miter;stroke-miterlimit:4;stroke-dasharray:none;stroke-dashoffset:0;stroke-opacity:1;paint-order:fill markers stroke;color-rendering:auto;image-rendering:auto;shape-rendering:auto;text-rendering:auto;enable-background:accumulate;stop-color:#000000"
           d="m 46.208635,105.04084 v 0.26458 1.62367 l 1.845881,-0.12919 v 2.39314 c 0,0.23232 -0.0049,0.44467 -0.01447,0.63665 l -5.29e-4,0.002 v 0.002 c -0.0055,0.16185 -0.03826,0.30629 -0.09973,0.44338 l -0.0011,0.003 -0.0016,0.003 c -0.05253,0.12394 -0.147175,0.24584 -0.304374,0.36742 l -5.29e-4,5.3e-4 -5.3e-4,5.3e-4 c -0.146761,0.11478 -0.393909,0.23719 -0.743622,0.34881 -0.283604,0.0905 -0.516395,0.13969 -0.681095,0.15038 -0.196348,0.009 -0.388962,0.0127 -0.576194,0.0108 l -0.04134,-5.3e-4 -0.450101,0.13901 v 2.10633 l 0.32091,-0.0703 c 0.299858,-0.0655 0.632764,-0.15791 0.995804,-0.27543 l 0.0021,-5.3e-4 c 0.35051,-0.11031 0.710041,-0.23805 1.077968,-0.38241 0.481005,-0.18871 0.891516,-0.39889 1.238168,-0.63355 0.334944,-0.22674 0.619218,-0.48707 0.853694,-0.77928 0.206597,-0.25544 0.360712,-0.53042 0.460955,-0.82217 h 0.0011 v -5.3e-4 c 0.09761,-0.28708 0.147278,-0.57816 0.147278,-0.87023 v -4.53048 z m 0.529166,0.52916 h 2.970361 v 4.00131 c 0,0.23241 -0.03903,0.46343 -0.119372,0.6997 -0.07962,0.23149 -0.200848,0.44993 -0.37207,0.66146 l -5.3e-4,5.3e-4 v 5.3e-4 c -0.199823,0.24902 -0.4432,0.47227 -0.737938,0.67179 -0.307285,0.20801 -0.682861,0.40146 -1.134814,0.57877 -0.358421,0.14063 -0.707784,0.2652 -1.045932,0.37156 h -0.0011 l -0.0016,5.3e-4 c -0.232085,0.0752 -0.424969,0.12136 -0.626319,0.17363 v -1.03973 l 0.0026,-10e-4 c 0.185076,10e-4 0.373009,-0.002 0.56534,-0.0109 h 0.0031 0.0021 c 0.232773,-0.0151 0.499047,-0.0755 0.808218,-0.17414 0.385514,-0.12305 0.68359,-0.26168 0.907439,-0.43667 h 5.29e-4 c 0.211516,-0.16385 0.371866,-0.35645 0.465606,-0.57671 0.08894,-0.19955 0.136903,-0.41452 0.144695,-0.63717 0.01,-0.2014 0.0155,-0.42111 0.0155,-0.66043 v -2.96054 l -1.845881,0.12919 z" />
      </g>
    </g>
    <g
       id="g1070"
       transform="translate(12.795529,2.4054257)"
       inkscape:export-filename="D:\Users\Ivan\Documents\dev\junkfile\junkfile\gui\images\icon.png"
       inkscape:export-xdpi="96"
       inkscape:export-ydpi="96">
      <g
         id="g1051"
         transform="translate(0,-5.7e-4)">
        <path
           style="color:#000000;font-style:normal;font-variant:normal;font-weight:normal;font-stretch:normal;font-size:medium;line-height:normal;font-family:sans-serif;font-variant-ligatures:normal;font-variant-position:normal;font-variant-caps:normal;font-variant-numeric:normal;font-variant-alternates:normal;font-variant-east-asian:normal;font-feature-settings:normal;font-variation-settings:normal;text-indent:0;text-align:start;text-decoration:none;text-decoration-line:none;text-decoration-style:solid;text-decoration-color:#000000;letter-spacing:normal;word-spacing:normal;text-transform:none;writing-mode:lr-tb;direction:ltr;text-orientation:mixed;dominant-baseline:auto;baseline-shift:baseline;text-anchor:start;white-space:normal;shape-padding:0;shape-margin:0;inline-size:0;clip-rule:nonzero;display:inline;overflow:visible;visibility:visible;isolation:auto;mix-blend-mode:normal;color-interpolation:sRGB;color-interpolation-filters:linearRGB;solid-color:#000000;solid-opacity:1;vector-effect:none;fill:#008080;fill-opacity:1;fill-rule:nonzero;stroke:none;stroke-width:0.0736472;stroke-linecap:square;stroke-linejoin:miter;stroke-miterlimit:4;stroke-dasharray:none;stroke-dashoffset:0;stroke-opacity:1;paint-order:fill markers stroke;color-rendering:auto;image-rendering:auto;shape-rendering:auto;text-rendering:auto;enable-background:accumulate;stop-color:#000000"
           d="m 88.116293,105.76824 v 0.11047 0.0737 0.57048 l 0.513804,-0.036 v 0.5476 c 0,0.0596 -0.0014,0.1132 -0.0037,0.16226 l -4.45e-4,0.002 v 0.0104 c -0.0011,0.0324 -0.0069,0.0569 -0.01812,0.082 l -0.0019,0.004 c -0.0062,0.0145 -0.01799,0.0326 -0.0502,0.0575 l -7.23e-4,5.6e-4 c -0.02347,0.0183 -0.08319,0.0504 -0.172611,0.079 -0.07311,0.0233 -0.131912,0.0346 -0.162686,0.0367 -0.05204,0.002 -0.102961,0.003 -0.152185,0.003 l -0.02891,-2.7e-4 -0.219791,0.0679 v 0.80508 l 0.223387,-0.0489 c 0.08577,-0.0187 0.179592,-0.0451 0.280349,-0.0775 l 0.0039,-8.4e-4 0.003,-0.001 c 0.100226,-0.0315 0.202682,-0.068 0.307247,-0.10903 0.139957,-0.0549 0.261563,-0.11687 0.366222,-0.18772 0.101594,-0.0688 0.189199,-0.1487 0.26165,-0.23892 0.06503,-0.0987 0.120086,-0.19575 0.153048,-0.29775 0.02368,-0.0798 0.04099,-0.16093 0.04099,-0.24295 v -1.37154 z"
           id="path908-5" />
        <path
           style="color:#000000;font-style:normal;font-variant:normal;font-weight:normal;font-stretch:normal;font-size:medium;line-height:normal;font-family:sans-serif;font-variant-ligatures:normal;font-variant-position:normal;font-variant-caps:normal;font-variant-numeric:normal;font-variant-alternates:normal;font-variant-east-asian:normal;font-feature-settings:normal;font-variation-settings:normal;text-indent:0;text-align:start;text-decoration:none;text-decoration-line:none;text-decoration-style:solid;text-decoration-color:#000000;letter-spacing:normal;word-spacing:normal;text-transform:none;writing-mode:lr-tb;direction:ltr;text-orientation:mixed;dominant-baseline:auto;baseline-shift:baseline;text-anchor:start;white-space:normal;shape-padding:0;shape-margin:0;inline-size:0;clip-rule:nonzero;display:inline;overflow:visible;visibility:visible;isolation:auto;mix-blend-mode:normal;color-interpolation:sRGB;color-interpolation-filters:linearRGB;solid-color:#000000;solid-opacity:1;vector-effect:none;fill:#ffffff;fill-opacity:1;fill-rule:nonzero;stroke:none;stroke-width:0.147295;stroke-linecap:square;stroke-linejoin:miter;stroke-miterlimit:4;stroke-dasharray:none;stroke-dashoffset:0;stroke-opacity:1;paint-order:fill markers stroke;color-rendering:auto;image-rendering:auto;shape-rendering:auto;text-rendering:auto;enable-background:accumulate;stop-color:#000000"
           d="m 88.300411,105.95236 v 0.37298 l 0.513804,-0.036 v 0.7451 c 0,0.0657 -0.0014,0.12599 -0.0042,0.18081 -0.0018,0.0538 -0.01312,0.1041 -0.03423,0.15118 -0.02037,0.0481 -0.05597,0.0919 -0.10745,0.13176 -0.05158,0.0404 -0.12751,0.0767 -0.22986,0.10932 -0.0825,0.0263 -0.151958,0.0416 -0.207277,0.0452 -0.05648,0.003 -0.111847,0.004 -0.16585,0.003 l -0.06243,0.0193 v 0.44045 c 0.08062,-0.0176 0.171213,-0.0427 0.270711,-0.0749 0.09593,-0.0302 0.194698,-0.0653 0.295883,-0.10501 0.129846,-0.0509 0.23925,-0.10711 0.330262,-0.16872 0.08764,-0.0593 0.161073,-0.12663 0.221518,-0.20196 0.05266,-0.065 0.09103,-0.13379 0.11608,-0.2067 0.02477,-0.0728 0.03711,-0.1455 0.03711,-0.2185 v -1.18742 z"
           id="path910-5" />
        <path
           id="path912-4"
           style="color:#000000;font-style:normal;font-variant:normal;font-weight:normal;font-stretch:normal;font-size:medium;line-height:normal;font-family:sans-serif;font-variant-ligatures:normal;font-variant-position:normal;font-variant-caps:normal;font-variant-numeric:normal;font-variant-alternates:normal;font-variant-east-asian:normal;font-feature-settings:normal;font-variation-settings:normal;text-indent:0;text-align:start;text-decoration:none;text-decoration-line:none;text-decoration-style:solid;text-decoration-color:#000000;letter-spacing:normal;word-spacing:normal;text-transform:none;writing-mode:lr-tb;direction:ltr;text-orientation:mixed;dominant-baseline:auto;baseline-shift:baseline;text-anchor:start;white-space:normal;shape-padding:0;shape-margin:0;inline-size:0;clip-rule:nonzero;display:inline;overflow:visible;visibility:visible;isolation:auto;mix-blend-mode:normal;color-interpolation:sRGB;color-interpolation-filters:linearRGB;solid-color:#000000;solid-opacity:1;vector-effect:none;fill:#333333;fill-opacity:1;fill-rule:nonzero;stroke:none;stroke-width:0.0736472;stroke-linecap:square;stroke-linejoin:miter;stroke-miterlimit:4;stroke-dasharray:none;stroke-dashoffset:0;stroke-opacity:1;paint-order:fill markers stroke;color-rendering:auto;image-rendering:auto;shape-rendering:auto;text-rendering:auto;enable-background:accumulate;stop-color:#000000"
           d="m 88.226803,105.87871 v 0.0737 0.45195 l 0.513804,-0.036 v 0.66614 c 0,0.0647 -0.0014,0.12377 -0.004,0.17721 l -1.47e-4,5.6e-4 v 5.5e-4 c -0.0015,0.0451 -0.01065,0.0853 -0.02776,0.12342 l -3.06e-4,8.3e-4 -4.46e-4,8.4e-4 c -0.01462,0.0345 -0.04097,0.0684 -0.08472,0.10227 l -1.47e-4,1.5e-4 -1.48e-4,1.5e-4 c -0.04085,0.032 -0.109645,0.066 -0.206988,0.0971 -0.07894,0.0252 -0.14374,0.0389 -0.189584,0.0419 -0.05465,0.002 -0.108268,0.004 -0.160385,0.003 l -0.01151,-1.4e-4 -0.125286,0.0387 v 0.5863 l 0.08933,-0.0196 c 0.08347,-0.0182 0.176131,-0.0439 0.277183,-0.0767 l 5.85e-4,-1.5e-4 c 0.09757,-0.0307 0.197641,-0.0663 0.300054,-0.10645 0.133889,-0.0525 0.248156,-0.11103 0.344647,-0.17635 0.09323,-0.0631 0.17236,-0.13557 0.237627,-0.21691 0.05751,-0.0711 0.100405,-0.14764 0.128308,-0.22885 h 3.06e-4 v -1.5e-4 c 0.02717,-0.0799 0.04099,-0.16093 0.04099,-0.24223 v -1.26107 z m 0.147294,0.1473 h 0.826805 v 1.11377 c 0,0.0647 -0.01086,0.129 -0.03323,0.19476 -0.02216,0.0644 -0.05591,0.12524 -0.103566,0.18412 l -1.48e-4,1.5e-4 v 1.5e-4 c -0.05562,0.0693 -0.123366,0.13145 -0.205406,0.18699 -0.08553,0.0579 -0.190076,0.11175 -0.315878,0.1611 -0.09977,0.0392 -0.197013,0.0738 -0.291137,0.10343 h -3.06e-4 l -4.46e-4,1.4e-4 c -0.0646,0.0209 -0.118291,0.0338 -0.174337,0.0483 v -0.28941 l 7.24e-4,-2.7e-4 c 0.05152,2.7e-4 0.103828,-5.6e-4 0.157363,-0.003 h 8.63e-4 5.85e-4 c 0.06479,-0.004 0.138911,-0.021 0.224969,-0.0485 0.107308,-0.0343 0.190278,-0.0728 0.252587,-0.12155 h 1.47e-4 c 0.05888,-0.0456 0.10351,-0.0992 0.129603,-0.16053 0.02476,-0.0555 0.03811,-0.11538 0.04028,-0.17735 0.0028,-0.0561 0.0043,-0.11722 0.0043,-0.18384 v -0.82407 l -0.513804,0.036 z" />
      </g>
      <path
         d="m 90.725335,105.94398 h -1.002617 v 0.42075 h 0.861479 v 0.17631 h -0.861479 v 0.71826 h -0.263636 v -1.49163 h 1.266253 z"
         style="font-style:normal;font-weight:normal;font-size:3.73323px;line-height:1.25;font-family:sans-serif;fill:#000000;fill-opacity:1;stroke:none;stroke-width:0.059132"
         id="path1035" />
    </g>
  </g>
</svg>
